<svg width="137" height="19" viewBox="0 0 137 19" fill="none" xmlns="http://www.w3.org/2000/svg">
<g clip-path="url(#clip0_11_69)">
<path d="M25.3983 6.70944H32.3532V8.86532H25.3983V6.70944ZM25.5981 12.754H33.4924V14.9502H23V0.846236H33.2126V3.04242H25.5981V12.754Z" fill="#153236"/>
<path d="M42.6266 14.9502V12.7741L42.4867 12.3107V8.50265C42.4867 7.76387 42.2668 7.193 41.8271 6.79003C41.3874 6.37363 40.7213 6.16543 39.8286 6.16543C39.229 6.16543 38.6361 6.25946 38.0499 6.44751C37.477 6.63556 36.9906 6.89749 36.5909 7.2333L35.6116 5.39979C36.1846 4.95652 36.8641 4.62743 37.6502 4.41251C38.4496 4.18416 39.2756 4.06999 40.1284 4.06999C41.6739 4.06999 42.8664 4.44609 43.7058 5.1983C44.5585 5.93708 44.9848 7.08554 44.9848 8.64369V14.9502H42.6266ZM39.269 15.0912C38.4696 15.0912 37.7701 14.9569 37.1705 14.6882C36.5709 14.4062 36.1046 14.0233 35.7715 13.5398C35.4518 13.0428 35.2919 12.4853 35.2919 11.8674C35.2919 11.263 35.4318 10.719 35.7116 10.2354C36.0047 9.75186 36.4777 9.36904 37.1305 9.08696C37.7834 8.80488 38.6494 8.66384 39.7287 8.66384H42.8264V10.3362H39.9085C39.0558 10.3362 38.4829 10.4772 38.1898 10.7593C37.8966 11.0279 37.7501 11.3637 37.7501 11.7667C37.7501 12.2234 37.93 12.5861 38.2897 12.8547C38.6494 13.1234 39.1491 13.2577 39.7886 13.2577C40.4015 13.2577 40.9478 13.1166 41.4274 12.8346C41.9204 12.5525 42.2735 12.1361 42.4867 11.5854L42.9063 13.0965C42.6665 13.7278 42.2335 14.2181 41.6073 14.5673C40.9944 14.9166 40.215 15.0912 39.269 15.0912Z" fill="#153236"/>
<path d="M51.4886 15.0912C50.5959 15.0912 49.7365 14.977 48.9104 14.7487C48.0977 14.5069 47.4515 14.2181 46.9718 13.8823L47.9311 11.9682C48.4108 12.2771 48.9837 12.5323 49.6499 12.7338C50.3161 12.9353 50.9823 13.0361 51.6484 13.0361C52.4345 13.0361 53.0008 12.9286 53.3472 12.7137C53.707 12.4988 53.8868 12.21 53.8868 11.8473C53.8868 11.5518 53.7669 11.3302 53.5271 11.1824C53.2873 11.0212 52.9742 10.9003 52.5878 10.8197C52.2014 10.7391 51.7684 10.6653 51.2887 10.5981C50.8224 10.5309 50.3494 10.4436 49.8697 10.3362C49.4034 10.2153 48.977 10.0474 48.5907 9.83245C48.2043 9.6041 47.8912 9.30187 47.6513 8.92577C47.4115 8.54966 47.2916 8.05267 47.2916 7.43478C47.2916 6.74973 47.4848 6.15871 47.8712 5.66172C48.2576 5.15129 48.7972 4.76175 49.49 4.49311C50.1962 4.21103 51.0289 4.06999 51.9882 4.06999C52.7077 4.06999 53.4338 4.15058 54.1666 4.31177C54.8994 4.47296 55.5057 4.70131 55.9853 4.99682L55.026 6.91092C54.5197 6.60198 54.0067 6.39378 53.4871 6.28632C52.9808 6.16543 52.4745 6.10498 51.9682 6.10498C51.2088 6.10498 50.6425 6.21916 50.2694 6.44751C49.9097 6.67586 49.7298 6.96465 49.7298 7.31389C49.7298 7.63627 49.8498 7.87805 50.0896 8.03924C50.3294 8.20042 50.6425 8.32803 51.0289 8.42206C51.4153 8.51608 51.8416 8.59668 52.308 8.66384C52.7876 8.71757 53.2606 8.80488 53.7269 8.92577C54.1933 9.04666 54.6196 9.21456 55.006 9.42948C55.4057 9.63097 55.7255 9.91976 55.9653 10.2959C56.2051 10.672 56.3251 11.1622 56.3251 11.7667C56.3251 12.4383 56.1252 13.0226 55.7255 13.5196C55.3391 14.0166 54.7862 14.4062 54.0667 14.6882C53.3472 14.9569 52.4878 15.0912 51.4886 15.0912Z" fill="#153236"/>
<path d="M59.1607 19C58.641 19 58.1214 18.9127 57.6018 18.7381C57.0822 18.5635 56.6491 18.3217 56.3027 18.0127L57.302 16.1591C57.5552 16.3874 57.8416 16.5688 58.1614 16.7031C58.4811 16.8374 58.8076 16.9046 59.1407 16.9046C59.5937 16.9046 59.9601 16.7904 60.2399 16.562C60.5197 16.3337 60.7795 15.9509 61.0193 15.4136L61.6389 14.0032L61.8387 13.701L65.8758 4.19088H68.274L63.2777 15.8165C62.9446 16.6225 62.5715 17.2605 62.1585 17.7306C61.7588 18.2008 61.3058 18.5299 60.7995 18.7179C60.3065 18.906 59.7602 19 59.1607 19ZM61.3591 15.333L56.5426 4.19088H59.1407L63.0578 13.4793L61.3591 15.333Z" fill="#153236"/>
<path d="M79.9354 15.1516C78.8429 15.1516 77.797 14.9972 76.7977 14.6882C75.7984 14.3659 75.0057 13.9562 74.4194 13.4592L75.3188 11.4242C75.8784 11.8674 76.5712 12.2368 77.3973 12.5323C78.2233 12.8279 79.0694 12.9756 79.9354 12.9756C80.6682 12.9756 81.2611 12.895 81.7141 12.7338C82.1672 12.5726 82.5002 12.3577 82.7134 12.0891C82.9266 11.807 83.0332 11.4913 83.0332 11.1421C83.0332 10.7123 82.88 10.3697 82.5735 10.1145C82.2671 9.84588 81.8674 9.63768 81.3744 9.48993C80.8947 9.32874 80.3551 9.18098 79.7556 9.04666C79.1693 8.91234 78.5764 8.75786 77.9769 8.58324C77.3906 8.39519 76.851 8.16013 76.358 7.87805C75.8784 7.58254 75.4853 7.193 75.1789 6.70944C74.8724 6.22588 74.7192 5.60799 74.7192 4.85578C74.7192 4.09014 74.9191 3.39166 75.3188 2.76034C75.7318 2.11559 76.3514 1.60516 77.1774 1.22906C78.0168 0.83952 79.0761 0.644751 80.3551 0.644751C81.1945 0.644751 82.0273 0.75221 82.8533 0.967127C83.6794 1.18204 84.3989 1.49099 85.0118 1.89396L84.1923 3.92895C83.5661 3.55285 82.9199 3.27748 82.2538 3.10286C81.5876 2.91481 80.948 2.82078 80.3351 2.82078C79.6157 2.82078 79.0294 2.90809 78.5764 3.08271C78.1367 3.25734 77.8103 3.48568 77.5971 3.76776C77.3973 4.04984 77.2973 4.37222 77.2973 4.73489C77.2973 5.16472 77.4439 5.51396 77.737 5.78261C78.0435 6.03782 78.4365 6.23931 78.9162 6.38706C79.4092 6.53482 79.9554 6.68257 80.555 6.83033C81.1546 6.96465 81.7475 7.11912 82.3337 7.29374C82.9333 7.46836 83.4729 7.69671 83.9525 7.97879C84.4455 8.26087 84.8385 8.64369 85.1317 9.12725C85.4381 9.61082 85.5913 10.222 85.5913 10.9608C85.5913 11.713 85.3848 12.4115 84.9718 13.0562C84.5721 13.6875 83.9525 14.1979 83.1131 14.5875C82.2737 14.9636 81.2145 15.1516 79.9354 15.1516Z" fill="#153236"/>
<path d="M93.8435 15.0912C92.9774 15.0912 92.1847 14.8897 91.4652 14.4867C90.759 14.0838 90.1928 13.4793 89.7664 12.6734C89.3534 11.854 89.1469 10.8197 89.1469 9.57052C89.1469 8.30788 89.3467 7.27359 89.7464 6.46766C90.1595 5.66172 90.7191 5.06398 91.4252 4.67444C92.1314 4.27147 92.9375 4.06999 93.8435 4.06999C94.896 4.06999 95.822 4.29834 96.6215 4.75504C97.4342 5.21174 98.0737 5.84977 98.5401 6.66914C99.0197 7.48851 99.2596 8.45564 99.2596 9.57052C99.2596 10.6854 99.0197 11.6592 98.5401 12.492C98.0737 13.3114 97.4342 13.9495 96.6215 14.4061C95.822 14.8628 94.896 15.0912 93.8435 15.0912ZM87.9278 18.859V4.19088H90.306V6.72959L90.2261 9.59067L90.426 12.4518V18.859H87.9278ZM93.5637 12.9353C94.1632 12.9353 94.6962 12.801 95.1625 12.5323C95.6422 12.2637 96.0219 11.8742 96.3017 11.3637C96.5815 10.8533 96.7214 10.2556 96.7214 9.57052C96.7214 8.87204 96.5815 8.2743 96.3017 7.77731C96.0219 7.26688 95.6422 6.87734 95.1625 6.6087C94.6962 6.34005 94.1632 6.20573 93.5637 6.20573C92.9641 6.20573 92.4245 6.34005 91.9449 6.6087C91.4652 6.87734 91.0855 7.26688 90.8057 7.77731C90.5259 8.2743 90.386 8.87204 90.386 9.57052C90.386 10.2556 90.5259 10.8533 90.8057 11.3637C91.0855 11.8742 91.4652 12.2637 91.9449 12.5323C92.4245 12.801 92.9641 12.9353 93.5637 12.9353Z" fill="#153236"/>
<path d="M106.645 15.0912C105.459 15.0912 104.42 14.8561 103.527 14.386C102.648 13.9024 101.962 13.2443 101.469 12.4115C100.989 11.5786 100.749 10.6317 100.749 9.57052C100.749 8.49594 100.983 7.54896 101.449 6.72959C101.929 5.89678 102.581 5.24532 103.407 4.77519C104.247 4.30505 105.2 4.06999 106.265 4.06999C107.305 4.06999 108.231 4.29834 109.043 4.75504C109.856 5.21174 110.496 5.85649 110.962 6.68929C111.428 7.52209 111.661 8.50265 111.661 9.63097C111.661 9.73842 111.655 9.85931 111.642 9.99364C111.642 10.128 111.635 10.2556 111.622 10.3765H102.728V8.70414H110.302L109.323 9.228C109.337 8.61011 109.21 8.0661 108.943 7.59597C108.677 7.12584 108.311 6.75645 107.844 6.4878C107.391 6.21916 106.865 6.08484 106.265 6.08484C105.653 6.08484 105.113 6.21916 104.647 6.4878C104.194 6.75645 103.834 7.13256 103.567 7.61612C103.314 8.08625 103.188 8.64369 103.188 9.28844V9.69141C103.188 10.3362 103.334 10.907 103.627 11.404C103.92 11.901 104.333 12.2838 104.866 12.5525C105.399 12.8211 106.012 12.9555 106.705 12.9555C107.305 12.9555 107.844 12.8614 108.324 12.6734C108.804 12.4853 109.23 12.1898 109.603 11.7869L110.942 13.3383C110.462 13.9024 109.856 14.339 109.123 14.6479C108.404 14.9434 107.578 15.0912 106.645 15.0912Z" fill="#153236"/>
<path d="M120.344 14.9502V12.7741L120.204 12.3107V8.50265C120.204 7.76387 119.984 7.193 119.544 6.79003C119.105 6.37363 118.438 6.16543 117.546 6.16543C116.946 6.16543 116.353 6.25946 115.767 6.44751C115.194 6.63556 114.708 6.89749 114.308 7.2333L113.329 5.39979C113.902 4.95652 114.581 4.62743 115.367 4.41251C116.167 4.18416 116.993 4.06999 117.845 4.06999C119.391 4.06999 120.583 4.44609 121.423 5.1983C122.276 5.93708 122.702 7.08554 122.702 8.64369V14.9502H120.344ZM116.986 15.0912C116.187 15.0912 115.487 14.9569 114.888 14.6882C114.288 14.4062 113.822 14.0233 113.489 13.5398C113.169 13.0428 113.009 12.4853 113.009 11.8674C113.009 11.263 113.149 10.719 113.429 10.2354C113.722 9.75186 114.195 9.36904 114.848 9.08696C115.5 8.80488 116.367 8.66384 117.446 8.66384H120.543V10.3362H117.626C116.773 10.3362 116.2 10.4772 115.907 10.7593C115.614 11.0279 115.467 11.3637 115.467 11.7667C115.467 12.2234 115.647 12.5861 116.007 12.8547C116.367 13.1234 116.866 13.2577 117.506 13.2577C118.119 13.2577 118.665 13.1166 119.145 12.8346C119.637 12.5525 119.991 12.1361 120.204 11.5854L120.623 13.0965C120.384 13.7278 119.951 14.2181 119.324 14.5673C118.711 14.9166 117.932 15.0912 116.986 15.0912Z" fill="#153236"/>
<path d="M127.947 12.5525L128.007 9.38918L133.582 4.19088H136.58L131.844 8.98621L130.525 10.0944L127.947 12.5525ZM125.908 14.9502V0H128.406V14.9502H125.908ZM133.962 14.9502L130.065 10.0944L131.644 8.07953L137 14.9502H133.962Z" fill="#153236"/>
<rect y="8" width="12" height="12" transform="rotate(-45 0 8)" fill="#8EECF9"/>
</g>
<defs>
<clipPath id="clip0_11_69">
<rect width="137" height="19" fill="white"/>
</clipPath>
</defs>
</svg>
